<svg version="1.2" xmlns="http://www.w3.org/2000/svg" viewBox="0 0 128 128" width="128" height="128">
	<title>express-black</title>
	<style>
		.s0 { fill: #ffffff } 
		.s1 { fill: #000000 } 
	</style>
	<path id="Shape 1" fill-rule="evenodd" class="s0" d="m64 128c-35.4 0-64-28.6-64-64 0-35.4 28.6-64 64-64 35.4 0 64 28.6 64 64 0 35.4-28.6 64-64 64z"/>
	<path class="s1" d="m112 90.4c-3.5 0.9-5.7 0-7.6-2.9-4.3-6.5-9.1-12.7-13.8-19.1-0.6-0.8-1.2-1.6-2-2.6-5.5 7.4-10.9 14.4-16.1 21.8-1.8 2.6-3.7 3.7-7.2 2.8l20.6-27.7-19.1-25c3.3-0.6 5.5-0.3 7.6 2.7 4.4 6.5 9.4 12.7 14.3 19.3 4.9-6.6 9.8-12.8 14.4-19.2 1.8-2.7 3.8-3.7 7.1-2.7-2.5 3.3-5 6.6-7.4 9.9-3.4 4.4-6.7 8.8-10.1 13.1-1.3 1.5-1.1 2.5 0.1 4 6.4 8.4 12.7 16.9 19.2 25.6zm-96-28.1c0.5-2.8 0.9-5.6 1.7-8.3 4.6-16.4 23.4-23.3 36.4-13.1 7.5 6 9.4 14.4 9.1 23.9h-42.8c-0.6 17 11.6 27.2 27.2 22 5.5-1.8 8.7-6.1 10.3-11.5 0.9-2.7 2.2-3.1 4.7-2.3-1.2 6.7-4.2 12.3-10.3 15.8-9.2 5.3-22.3 3.6-29.2-3.7-4.1-4.3-5.8-9.7-6.6-15.4-0.1-1-0.3-1.9-0.5-2.8q0-2.3 0-4.6zm4.5-1.2h38.6c-0.2-12.3-7.9-21-18.4-21.1-11.5-0.1-19.7 8.4-20.2 21.1z"/>
</svg>